<svg width="35" height="35" viewBox="0 0 35 35" fill="none" xmlns="http://www.w3.org/2000/svg">
<path d="M17.5 3.20833C22.1667 3.20833 22.75 3.20833 24.6458 3.35417C29.4583 3.5 31.6458 5.83333 31.7917 10.5C31.9375 12.3958 31.9375 12.8333 31.9375 17.5C31.9375 22.1667 31.9375 22.75 31.7917 24.5C31.6458 29.1667 29.3125 31.5 24.6458 31.6458C22.75 31.7917 22.3125 31.7917 17.5 31.7917C12.8333 31.7917 12.25 31.7917 10.5 31.6458C5.6875 31.5 3.5 29.1667 3.35417 24.5C3.20833 22.6042 3.20833 22.1667 3.20833 17.5C3.20833 12.8333 3.20833 12.25 3.35417 10.5C3.5 5.83333 5.83333 3.5 10.5 3.35417C12.25 3.20833 12.8333 3.20833 17.5 3.20833ZM17.5 0C12.6875 0 12.1042 0 10.3542 0.145833C3.9375 0.4375 0.4375 3.9375 0.145833 10.3542C0 12.1042 0 12.6875 0 17.5C0 22.3125 0 22.8958 0.145833 24.6458C0.4375 31.0625 3.9375 34.5625 10.3542 34.8542C12.1042 35 12.6875 35 17.5 35C22.3125 35 22.8958 35 24.6458 34.8542C31.0625 34.5625 34.5625 31.0625 34.8542 24.6458C35 22.8958 35 22.3125 35 17.5C35 12.6875 35 12.1042 34.8542 10.3542C34.5625 3.9375 31.0625 0.4375 24.6458 0.145833C22.8958 0 22.3125 0 17.5 0ZM17.5 8.45833C12.5417 8.45833 8.45833 12.5417 8.45833 17.5C8.45833 22.4583 12.5417 26.5417 17.5 26.5417C22.4583 26.5417 26.5417 22.4583 26.5417 17.5C26.5417 12.5417 22.4583 8.45833 17.5 8.45833ZM17.5 23.3333C14.2917 23.3333 11.6667 20.7083 11.6667 17.5C11.6667 14.2917 14.2917 11.6667 17.5 11.6667C20.7083 11.6667 23.3333 14.2917 23.3333 17.5C23.3333 20.7083 20.7083 23.3333 17.5 23.3333ZM26.8333 6.125C25.6667 6.125 24.7917 7 24.7917 8.16667C24.7917 9.33333 25.6667 10.2083 26.8333 10.2083C28 10.2083 28.875 9.33333 28.875 8.16667C28.875 7 28 6.125 26.8333 6.125Z" fill="#CB9113"/>
</svg>
