<svg width="35" height="29" viewBox="0 0 35 29" fill="none" xmlns="http://www.w3.org/2000/svg">
<path d="M11.0072 28.4453C24.2153 28.4453 31.4384 17.5026 31.4384 8.01406C31.4384 7.70316 31.432 7.39386 31.4177 7.08575C32.8197 6.07225 34.0387 4.80716 35 3.36772C33.7134 3.93936 32.3289 4.3243 30.8763 4.49786C32.3588 3.60895 33.4973 2.20215 34.0343 0.52546C32.6466 1.34828 31.11 1.94619 29.4747 2.26863C28.1638 0.87298 26.2977 0 24.2328 0C20.2668 0 17.0508 3.21605 17.0508 7.18009C17.0508 7.74377 17.1141 8.29152 17.2367 8.81737C11.2691 8.51762 5.9771 5.65984 2.43582 1.31524C1.81841 2.37611 1.46293 3.60935 1.46293 4.9242C1.46293 7.41535 2.7308 9.61472 4.65868 10.9017C3.48077 10.8655 2.37412 10.5414 1.4064 10.0032C1.40481 10.0331 1.40481 10.0634 1.40481 10.0948C1.40481 13.5728 3.88044 16.4763 7.16576 17.1344C6.56267 17.2988 5.92814 17.3871 5.27291 17.3871C4.81035 17.3871 4.36052 17.341 3.92303 17.2578C4.83702 20.1104 7.4882 22.1867 10.6314 22.2453C8.17329 24.1715 5.07706 25.3192 1.71292 25.3192C1.13372 25.3192 0.562083 25.2862 0 25.2197C3.17784 27.2562 6.9512 28.4453 11.0072 28.4453Z" fill="#CB9113"/>
</svg>
